<?xml version="1.0" encoding="UTF-8"?>
<svg version="1.1" xmlns="http://www.w3.org/2000/svg" width="750" height="750">
<path d="M0 0 C247.5 0 495 0 750 0 C750 247.5 750 495 750 750 C502.5 750 255 750 0 750 C0 502.5 0 255 0 0 Z " fill="#5271FF" transform="translate(0,0)"/>
<path d="M0 0 C0 -1.32 0 -2.64 0 -4 C5.94 -4 11.88 -4 18 -4 C18 21.08 18 46.16 18 72 C17.34 72 16.68 72 16 72 C15.8453125 73.0828125 15.8453125 73.0828125 15.6875 74.1875 C14.54442117 78.86373158 12.38220317 81.61779683 9 85 C134.73 85 260.46 85 390 85 C386.00621145 86.99689427 384.18577925 87.3014682 379.84790039 87.47070312 C378.58686996 87.52422943 377.32583954 87.57775574 376.02659607 87.63290405 C374.6336247 87.68259347 373.24064443 87.73203399 371.84765625 87.78125 C370.38234141 87.8395055 368.91705552 87.89849328 367.45179749 87.9581604 C363.48295388 88.11717231 359.51374639 88.26415029 355.54434967 88.40860748 C352.22869263 88.53070442 348.91331971 88.65974661 345.59791946 88.78859901 C318.91867017 89.82290917 292.23305943 90.64792517 265.54321289 91.35351562 C249.22240044 91.77648036 249.22240044 91.77648036 232.9140625 92.51953125 C219.70487992 93.25414906 206.47574676 93.35903975 193.25 93.5625 C190.59504707 93.60581373 187.94009909 93.64943149 185.28515625 93.69335938 C178.85682347 93.79907067 172.42844034 93.90105704 166 94 C166 94.66 166 95.32 166 96 C165.02877197 96.02505615 164.05754395 96.0501123 163.05688477 96.07592773 C159.36458756 96.17193213 155.67239706 96.27163585 151.98022461 96.37231445 C150.39887023 96.41495018 148.81749041 96.45665493 147.23608398 96.49731445 C144.92944723 96.55679792 142.62293082 96.61992261 140.31640625 96.68359375 C139.63856583 96.70030624 138.9607254 96.71701874 138.26234436 96.73423767 C133.91005707 96.85834703 129.57028028 97.08169413 125.22463512 97.35410404 C116.14089754 97.92160135 107.06819812 98.24413274 97.96945953 98.44555664 C95.4356782 98.50177378 92.90201563 98.56196366 90.36834717 98.62304688 C84.08670614 98.77377206 77.80493115 98.91852073 71.52313232 99.0625 C66.17995236 99.18510327 60.83685276 99.31050794 55.49382782 99.43969727 C53.02314048 99.49833821 50.55238655 99.55296608 48.081604 99.60742188 C33.96134573 99.47779501 33.96134573 99.47779501 20.13572121 101.50209045 C17.78873043 102.04925415 15.633665 102.18628293 13.22525024 102.26538086 C12.26708908 102.29896698 11.30892792 102.3325531 10.32173157 102.36715698 C9.27663925 102.39939362 8.23154694 102.43163025 7.15478516 102.46484375 C6.04837173 102.50239777 4.94195831 102.53995178 3.80201721 102.5786438 C0.131154 102.70227395 -3.53987844 102.81984166 -7.2109375 102.9375 C-9.77569944 103.02294243 -12.34044742 103.10880493 -14.90518188 103.19506836 C-20.98799612 103.39879995 -27.0709199 103.59887787 -33.15391886 103.79700756 C-44.62385476 104.17074342 -56.0935105 104.55292397 -67.56315994 104.93533325 C-71.29925136 105.05921127 -75.03540515 105.18103238 -78.77157593 105.30249023 C-90.42594818 105.68513217 -102.07579442 106.09860777 -113.72203636 106.68357086 C-122.44039939 107.1095838 -131.14844326 107.11242525 -139.875 107.0625 C-141.46093603 107.0574565 -143.04687368 107.05289881 -144.6328125 107.04882812 C-148.42191707 107.03809018 -152.21093898 107.0209965 -156 107 C-156.19335938 105.96359375 -156.38671875 104.9271875 -156.5859375 103.859375 C-156.84864867 102.48952391 -157.11168671 101.11973548 -157.375 99.75 C-157.50132812 99.06808594 -157.62765625 98.38617188 -157.7578125 97.68359375 C-158.44630993 94.13783199 -159.32063149 91.18349856 -161 88 C-161 87.01 -161 86.02 -161 85 C-122.06 85 -83.12 85 -43 85 C-42.505 83.02 -42.505 83.02 -42 81 C-41.34210358 79.40413879 -40.65352657 77.82063893 -39.9375 76.25 C-39.57527344 75.45078125 -39.21304688 74.6515625 -38.83984375 73.828125 C-38.56269531 73.22484375 -38.28554687 72.6215625 -38 72 C-36.41642541 72.31127516 -34.83315007 72.62407289 -33.25 72.9375 C-32.36828125 73.11152344 -31.4865625 73.28554688 -30.578125 73.46484375 C-28 74 -28 74 -26.16796875 74.55078125 C-22.81901888 75.2447078 -19.46795197 75.22516535 -16.0625 75.25 C-15.35931641 75.270625 -14.65613281 75.29125 -13.93164062 75.3125 C-9.42076289 75.34632101 -6.5739265 74.79318173 -3 72 C-0.68472408 67.94826715 -0.46476174 63.57015707 0 59 C-0.51304687 59.3609375 -1.02609375 59.721875 -1.5546875 60.09375 C-9.71428581 65.0389611 -18.72011559 65.6322786 -28 64 C-36.01159651 61.09940017 -42.1846597 55.96687533 -47 49 C-47.5053125 48.319375 -48.010625 47.63875 -48.53125 46.9375 C-53.49420499 38.99677201 -52.90738512 29.0612167 -52 20 C-51.505 18.515 -51.505 18.515 -51 17 C-50.34 17 -49.68 17 -49 17 C-48.896875 16.278125 -48.79375 15.55625 -48.6875 14.8125 C-46.68607331 6.62484535 -39.92263193 2.16305285 -33.1640625 -2.1796875 C-23.37992283 -6.82826065 -9.19069345 -5.05826863 0 0 Z " fill="#F9FAFF" transform="translate(260,336)"/>
<path d="M0 0 C3.31008096 1.79642585 4.77257655 3.24638004 6.1875 6.75 C6.77917969 6.26789063 7.37085938 5.78578125 7.98046875 5.2890625 C8.77066406 4.65742188 9.56085938 4.02578125 10.375 3.375 C11.15230469 2.74851562 11.92960937 2.12203125 12.73046875 1.4765625 C20.29071081 -3.83604003 29.84784343 -3.06961292 38.6953125 -1.92578125 C45.075001 -0.10485802 49.40191129 5.58212164 53.1875 10.75 C54.84974208 14.27231759 55.43420905 17.02496292 55.41455078 20.9074707 C55.41439972 21.90813065 55.41424866 22.90879059 55.41409302 23.93977356 C55.40377045 25.0076561 55.39344788 26.07553864 55.3828125 27.17578125 C55.3799826 28.27850876 55.37715271 29.38123627 55.37423706 30.51737976 C55.36305981 34.03253114 55.33795937 37.54742589 55.3125 41.0625 C55.30246704 43.44856402 55.29334174 45.83463205 55.28515625 48.22070312 C55.26312845 54.06390066 55.22861513 59.90690685 55.1875 65.75 C49.2475 65.75 43.3075 65.75 37.1875 65.75 C37.17291748 64.48406006 37.15833496 63.21812012 37.14331055 61.91381836 C37.08513878 57.19657796 37.00790707 52.47980549 36.92504883 47.76293945 C36.89188816 45.72525655 36.86382888 43.68748376 36.84106445 41.6496582 C36.80735538 38.71266537 36.75503126 35.77648977 36.69921875 32.83984375 C36.69282883 31.93540024 36.6864389 31.03095673 36.67985535 30.09910583 C36.55308783 24.58908845 35.80424589 20.63096636 33.1875 15.75 C30.37403081 13.63697957 27.78129117 13.42903102 24.3125 13.375 C23.49007812 13.34664063 22.66765625 13.31828125 21.8203125 13.2890625 C17.93959173 13.96847652 16.1164226 15.07234031 13.1875 17.75 C12.26987344 21.29185309 12.34993117 24.77929316 12.3828125 28.421875 C12.36910614 29.45942932 12.35539978 30.49698364 12.34127808 31.565979 C12.30390704 34.87775756 12.30769797 38.18804011 12.3125 41.5 C12.29437832 43.74611726 12.27357731 45.99221463 12.25 48.23828125 C12.19808181 53.742439 12.18307423 59.24561077 12.1875 64.75 C6.5775 64.75 0.9675 64.75 -4.8125 64.75 C-4.842229 62.83537964 -4.842229 62.83537964 -4.87255859 60.88208008 C-4.94872663 56.13888074 -5.037427 51.39598368 -5.12988281 46.65307617 C-5.16812625 44.60170466 -5.20298719 42.55026716 -5.234375 40.4987793 C-5.28012602 37.54712362 -5.33810422 34.59592047 -5.3984375 31.64453125 C-5.40998871 30.72976517 -5.42153992 29.81499908 -5.43344116 28.87251282 C-5.5897086 21.25120697 -5.5897086 21.25120697 -9.5703125 14.96484375 C-12.41875439 13.42152419 -14.45671 13.31661042 -17.6875 13.3125 C-18.69554687 13.29316406 -19.70359375 13.27382813 -20.7421875 13.25390625 C-24.86954258 13.92079441 -26.7168203 14.89519527 -29.8125 17.75 C-30.72763923 21.29274879 -30.65007185 24.77895963 -30.6171875 28.421875 C-30.63774704 29.97820648 -30.63774704 29.97820648 -30.65872192 31.565979 C-30.69609296 34.87775756 -30.69230203 38.18804011 -30.6875 41.5 C-30.70562168 43.74611726 -30.72642269 45.99221463 -30.75 48.23828125 C-30.80191819 53.742439 -30.81692577 59.24561077 -30.8125 64.75 C-36.4225 64.75 -42.0325 64.75 -47.8125 64.75 C-47.8125 42.97 -47.8125 21.19 -47.8125 -1.25 C-41.8725 -1.25 -35.9325 -1.25 -29.8125 -1.25 C-29.8125 -0.26 -29.8125 0.73 -29.8125 1.75 C-29.33683594 1.46125 -28.86117188 1.1725 -28.37109375 0.875 C-19.57437051 -3.79066536 -9.06893185 -4.24531158 0 0 Z " fill="#FAFBFF" transform="translate(339.8125,334.25)"/>
<path d="M0 0 C5.24548906 4.20947771 7.50124819 9.56975322 9 16 C9.37032128 19.80201476 9.35186527 23.56189453 9.29296875 27.37890625 C9.28872391 28.43158188 9.28447906 29.48425751 9.28010559 30.5688324 C9.26343768 33.90032542 9.2258075 37.23119268 9.1875 40.5625 C9.17243781 42.83397558 9.1587521 45.10546073 9.14648438 47.37695312 C9.11357309 52.91820644 9.06187342 58.45899746 9 64 C2.73 64 -3.54 64 -10 64 C-10.33 63.34 -10.66 62.68 -11 62 C-12.155 62.495 -13.31 62.99 -14.5 63.5 C-21.72519598 65.94687148 -31.74610822 66.41796393 -39 64 C-39 63.34 -39 62.68 -39 62 C-39.58523437 61.89300781 -40.17046875 61.78601563 -40.7734375 61.67578125 C-43.29420096 60.91070743 -44.64613865 59.90919655 -46.625 58.1875 C-47.21539062 57.68605469 -47.80578125 57.18460937 -48.4140625 56.66796875 C-52.62354887 52.24075033 -52.49627115 47.57156572 -52.50195312 41.65307617 C-52.37495576 37.70316942 -51.99665087 34.91974484 -49.5 31.8125 C-42.55717466 25.39739536 -34.86640454 23.81941685 -25.75 23.8125 C-24.91597656 23.80025391 -24.08195312 23.78800781 -23.22265625 23.77539062 C-18.08492317 23.76329235 -13.8654718 24.33653464 -9 26 C-9.08733576 24.39482903 -9.19552224 22.79078338 -9.3125 21.1875 C-9.37050781 20.29417969 -9.42851562 19.40085937 -9.48828125 18.48046875 C-10.07421725 15.64024462 -10.70924126 14.72487059 -13 13 C-21.641353 10.119549 -32.88188375 11.1033042 -41 15 C-41.99 15 -42.98 15 -44 15 C-44.84324672 13.421924 -45.67423918 11.8372958 -46.5 10.25 C-46.9640625 9.36828125 -47.428125 8.4865625 -47.90625 7.578125 C-49 5 -49 5 -49 1 C-46.9170757 0.35284867 -44.83364461 -0.29267166 -42.75 -0.9375 C-41.58984375 -1.29714844 -40.4296875 -1.65679687 -39.234375 -2.02734375 C-27.50395342 -5.55497053 -10.72033696 -6.74762363 0 0 Z " fill="#F7F8FF" transform="translate(189,336)"/>
<path d="M0 0 C0.886875 0.4125 1.77375 0.825 2.6875 1.25 C10.05998 6.82917405 14.1195648 14.35869441 17 23 C17 27.62 17 32.24 17 37 C0.83 37 -15.34 37 -32 37 C-27.92376582 45.6473231 -27.92376582 45.6473231 -21 50 C-11.75909904 51.14447896 -11.75909904 51.14447896 -3.375 47.9375 C-2.59125 47.298125 -1.8075 46.65875 -1 46 C2.87769117 46.26178506 4.99106675 48.50642949 7.75 51.0625 C8.94882812 52.16271484 8.94882812 52.16271484 10.171875 53.28515625 C10.77515625 53.85105469 11.3784375 54.41695313 12 55 C11 58 11 58 9.06640625 59.31640625 C3.0768173 62.29718453 -2.32884859 64.33547392 -9 65 C-9.65564941 65.06654785 -10.31129883 65.1330957 -10.98681641 65.20166016 C-21.40006073 66.11917778 -28.66725011 65.50471129 -37.359375 59.26953125 C-41.00205285 56.13876819 -43.66864431 53.19644025 -46 49 C-46.48210937 48.17757812 -46.96421875 47.35515625 -47.4609375 46.5078125 C-51.91544821 38.01717054 -52.56414656 29.31787877 -49.75 20.125 C-49.20228534 18.73542761 -48.6204817 17.35864095 -48 16 C-47.7215625 15.38640625 -47.443125 14.7728125 -47.15625 14.140625 C-42.56424914 5.19414056 -35.57042518 0.43683214 -26.1796875 -2.5859375 C-17.53329367 -4.22844242 -7.99121039 -3.75954099 0 0 Z " fill="#F9FAFF" transform="translate(456,335)"/>
<path d="M0 0 C26.4 0 52.8 0 80 0 C80 5.61 80 11.22 80 17 C70.1 17 60.2 17 50 17 C50 41.42 50 65.84 50 91 C44.06 91 38.12 91 32 91 C32 66.58 32 42.16 32 17 C21.44 17 10.88 17 0 17 C0 11.39 0 5.78 0 0 Z " fill="#FBFBFF" transform="translate(64,309)"/>
<path d="M0 0 C17.5692362 -1.63142908 17.5692362 -1.63142908 22.8984375 1.9453125 C24.90042636 4.53286331 26.45711239 7.11831045 28 10 C29.14158407 11.56033107 30.30625624 13.10420315 31.5 14.625 C32.33572636 15.74822344 33.16949453 16.87291078 34 18 C35.77138444 15.75043199 37.54212547 13.50036258 39.3125 11.25 C39.81201172 10.61578125 40.31152344 9.9815625 40.82617188 9.328125 C41.31279297 8.709375 41.79941406 8.090625 42.30078125 7.453125 C42.74591064 6.88754883 43.19104004 6.32197266 43.6496582 5.73925781 C45.0692799 3.97001991 45.0692799 3.97001991 46.37695312 1.80859375 C48 0 48 0 50.17651367 -0.45410156 C50.99869385 -0.4331543 51.82087402 -0.41220703 52.66796875 -0.390625 C53.56064453 -0.37773437 54.45332031 -0.36484375 55.37304688 -0.3515625 C56.30181641 -0.31804687 57.23058594 -0.28453125 58.1875 -0.25 C59.59805664 -0.22292969 59.59805664 -0.22292969 61.03710938 -0.1953125 C63.35909889 -0.1481655 65.6790369 -0.08238231 68 0 C62.09184593 8.99529764 55.53764139 17.4974827 48.62890625 25.74609375 C46.93893799 28.08449108 45.95229538 30.28667599 45 33 C45.556875 33.66644531 46.11375 34.33289063 46.6875 35.01953125 C51.34438346 40.64397664 55.75987799 46.33790257 60.00390625 52.28125 C62.71104896 55.96847374 65.60621083 59.48823417 68.53125 63.00390625 C70 65 70 65 70 67 C66.58397985 67.17446934 63.16910363 67.28089623 59.75 67.375 C58.78191406 67.42527344 57.81382812 67.47554688 56.81640625 67.52734375 C54.09451133 67.58365882 51.66701726 67.55279994 49 67 C46.5859375 64.328125 46.5859375 64.328125 45 61 C42.95343921 58.18115213 40.88091985 55.38297505 38.8046875 52.5859375 C37.30006041 50.42995669 36.0861922 48.3851437 35 46 C30.13369601 49.51455288 27.19216101 53.45039313 24.67578125 58.83203125 C22.71740119 62.38815729 21.26271887 64.54008169 18 67 C11.46437172 68.39088056 4.59668442 67.67380419 -2 67 C-0.35990679 63.575417 1.5878841 60.94580705 4 58 C5.97799712 55.41058294 7.9250482 52.79807779 9.875 50.1875 C10.89322917 48.82682292 11.91145833 47.46614583 12.9296875 46.10546875 C13.42823242 45.43177246 13.92677734 44.75807617 14.44042969 44.06396484 C15.51840342 42.63735402 16.62542625 41.23239979 17.75488281 39.84619141 C18.31272461 39.15058105 18.87056641 38.4549707 19.4453125 37.73828125 C19.95852051 37.11606689 20.47172852 36.49385254 21.00048828 35.8527832 C22.21119624 34.03747295 22.21119624 34.03747295 21.73681641 31.8984375 C20.83925836 29.58584261 19.65785667 27.73034357 18.25 25.6875 C17.44369141 24.51574219 17.44369141 24.51574219 16.62109375 23.3203125 C16.08613281 22.55460937 15.55117188 21.78890625 15 21 C14.53722656 20.31679688 14.07445312 19.63359375 13.59765625 18.9296875 C11.56927835 15.98268253 10.00896753 14.00597835 7 12 C5.99333121 10.33270482 4.98701852 8.66343017 4.0625 6.94921875 C2.77659737 4.59015473 1.39205424 2.29768044 0 0 Z " fill="#F8F9FF" transform="translate(615,333)"/>
<path d="M0 0 C0 6.93 0 13.86 0 21 C6.6 21 13.2 21 20 21 C20 25.95 20 30.9 20 36 C13.73 36 7.46 36 1 36 C1.07405864 40.62738836 1.15693041 45.2528631 1.26245117 49.87939453 C1.29566372 51.45253522 1.32370717 53.02579401 1.34643555 54.59912109 C1.38005028 56.86346672 1.43236624 59.12673365 1.48828125 61.390625 C1.49467117 62.09181458 1.5010611 62.79300415 1.50764465 63.51544189 C1.59909417 66.56642657 1.86292554 68.74589595 3.32226562 71.45117188 C6.03037785 73.95121029 8.61641939 73.38104883 12.1875 73.25 C15.5596875 73.12625 15.5596875 73.12625 19 73 C19 77.95 19 82.9 19 88 C10.78172942 90.05456765 -0.09182857 90.32975639 -8 87 C-11.8921301 83.82736578 -15.39054408 80.82836777 -17 76 C-17.08567246 74.63407817 -17.11773647 73.26435142 -17.11352539 71.89575195 C-17.11344986 71.07512772 -17.11337433 70.25450348 -17.11329651 69.40901184 C-17.10813522 68.52767075 -17.10297394 67.64632965 -17.09765625 66.73828125 C-17.0962413 65.83248825 -17.09482635 64.92669525 -17.09336853 63.99345398 C-17.08777001 61.09976909 -17.07521781 58.20616151 -17.0625 55.3125 C-17.05748481 53.35091258 -17.05292193 51.38932394 -17.04882812 49.42773438 C-17.03780107 44.61845979 -17.02053747 39.809243 -17 35 C-21.29 35 -25.58 35 -30 35 C-30 30.38 -30 25.76 -30 21 C-25.71 21 -21.42 21 -17 21 C-17 15.06 -17 9.12 -17 3 C-10.64472466 0.91059441 -6.88230447 0 0 0 Z " fill="#F8F9FF" transform="translate(508,312)"/>
<path d="M0 0 C0 4.95 0 9.9 0 15 C-1.08539062 14.96519531 -2.17078125 14.93039062 -3.2890625 14.89453125 C-4.73435942 14.86637612 -6.17967321 14.83907781 -7.625 14.8125 C-8.69427734 14.77479492 -8.69427734 14.77479492 -9.78515625 14.73632812 C-14.60179642 14.67004409 -17.85121667 15.29294929 -22 18 C-24.55534948 20.84890133 -25.37759733 22.68077429 -25.43237305 26.49316406 C-25.45216721 27.37377502 -25.47196136 28.25438599 -25.49235535 29.16168213 C-25.50194023 30.57438385 -25.50194023 30.57438385 -25.51171875 32.015625 C-25.52966995 32.98659119 -25.54762115 33.95755737 -25.56611633 34.95794678 C-25.62024273 38.05525385 -25.65412283 41.1524066 -25.6875 44.25 C-25.72067098 46.35158398 -25.75516043 48.4531476 -25.79101562 50.5546875 C-25.87597073 55.70301371 -25.94277108 60.85129395 -26 66 C-31.61 66 -37.22 66 -43 66 C-43 44.22 -43 22.44 -43 0 C-37.39 0 -31.78 0 -26 0 C-26 1.98 -26 3.96 -26 6 C-25.32904297 5.38511719 -25.32904297 5.38511719 -24.64453125 4.7578125 C-17.22843944 -1.85183862 -9.41865047 -4.70932524 0 0 Z " fill="#FBFCFF" transform="translate(580,333)"/>
<path d="M0 0 C5.61 0 11.22 0 17 0 C17 22.11 17 44.22 17 67 C11.39 67 5.78 67 0 67 C0 44.89 0 22.78 0 0 Z " fill="#FCFCFF" transform="translate(589,333)"/>
<path d="M0 0 C3.78507778 3.78507778 2.45796044 10.26719318 2.5 15.375 C2.54125 16.62023437 2.5825 17.86546875 2.625 19.1484375 C2.70181949 28.05949865 2.70181949 28.05949865 0.69921875 30.74316406 C-1.4664625 32.23832721 -3.35541007 33 -6 33 C-6 33.66 -6 34.32 -6 35 C-8.29160319 35.02692484 -10.58329546 35.04636124 -12.875 35.0625 C-14.15117187 35.07410156 -15.42734375 35.08570313 -16.7421875 35.09765625 C-20 35 -20 35 -22 34 C-22 33.34 -22 32.68 -22 32 C-22.763125 31.731875 -23.52625 31.46375 -24.3125 31.1875 C-28.05520928 29.53374473 -29.43309656 28.19348092 -31.1875 24.5 C-32.92103645 17.03245839 -33.11016201 9.62929356 -29 3 C-20.49228442 -4.72331627 -10.11958087 -4.78380186 0 0 Z " fill="#5472FF" transform="translate(258,350)"/>
<path d="M0 0 C189.09 0.495 189.09 0.495 382 1 C378.40534595 2.79732703 377.15387865 3.26370258 373.39355469 3.41064453 C372.48450378 3.45053497 371.57545288 3.49042542 370.63885498 3.53152466 C369.17019989 3.58166214 369.17019989 3.58166214 367.671875 3.6328125 C366.65007141 3.67437469 365.62826782 3.71593689 364.57550049 3.75875854 C362.40694569 3.84524908 360.23821153 3.92733781 358.06933594 4.00537109 C354.80359554 4.12306842 351.53858176 4.25359905 348.2734375 4.38671875 C336.84332012 4.83802826 325.43934117 5.13380588 314 5 C314 4.01 314 3.02 314 2 C210.38 2 106.76 2 0 2 C0 1.34 0 0.68 0 0 Z " fill="#C8D3FF" transform="translate(268,420)"/>
<path d="M0 0 C1.20946289 0.00193359 1.20946289 0.00193359 2.44335938 0.00390625 C8.38930963 0.09287309 8.38930963 0.09287309 11.8125 2.375 C12.10546875 4.9765625 12.10546875 4.9765625 12 8 C11.97292969 9.00289063 11.94585937 10.00578125 11.91796875 11.0390625 C11.88316406 11.80992187 11.84835938 12.58078125 11.8125 13.375 C5.17913983 17.16549153 -1.6879903 17.31579871 -9.1875 16.375 C-12.41239653 15.10867937 -13.07197793 14.29939815 -15.1875 11.375 C-15.9375 7.8125 -15.9375 7.8125 -15.1875 4.375 C-10.26978323 0.01664438 -6.2376279 -0.19223833 0 0 Z " fill="#5A78FF" transform="translate(168.1875,371.625)"/>
<path d="M0 0 C4.29698862 1.96045105 7.30527384 4.13639391 9.78515625 8.26953125 C9.78515625 9.58953125 9.78515625 10.90953125 9.78515625 12.26953125 C-0.44484375 12.26953125 -10.67484375 12.26953125 -21.21484375 12.26953125 C-19.9476565 7.20078224 -18.52601048 4.4246067 -14.58984375 0.95703125 C-9.6017605 -1.53701037 -5.31460363 -1.75278815 0 0 Z " fill="#5775FF" transform="translate(445.21484375,346.73046875)"/>
<path d="M0 0 C2.69990662 1.79993774 4.5418865 3.083773 6 6 C6.3812434 10.57492082 6.31065284 13.20924731 4.625 17.5 C1.71991476 20.26674785 0.91801817 20.49717914 -2.9375 20.75 C-6.47542349 20.5200611 -8.64041971 20.09136741 -11.125 17.5 C-13.55355511 12.96669713 -13.8055735 11.07511305 -13 6 C-9.03891073 1.10075801 -6.2893671 -0.61660462 0 0 Z " fill="#F6F8FF" transform="translate(601,304)"/>
<path d="M0 0 C2.97922593 -0.02683987 5.95821295 -0.04676037 8.9375 -0.0625 C9.78763672 -0.07087891 10.63777344 -0.07925781 11.51367188 -0.08789062 C12.32255859 -0.09111328 13.13144531 -0.09433594 13.96484375 -0.09765625 C14.7137085 -0.10289307 15.46257324 -0.10812988 16.23413086 -0.11352539 C18 0 18 0 19 1 C19.0942174 3.11681317 19.11742761 5.23680758 19.11352539 7.35571289 C19.11367142 8.01910172 19.11381744 8.68249054 19.1139679 9.36598206 C19.11326881 11.56823956 19.10547665 13.77041345 19.09765625 15.97265625 C19.09579206 17.49580336 19.09436816 19.01895107 19.09336853 20.542099 C19.08954346 24.55837651 19.07971328 28.57461808 19.06866455 32.59088135 C19.05845019 36.68623366 19.05387086 40.78159176 19.04882812 44.87695312 C19.038091 52.91798528 19.02101472 60.95898817 19 69 C18.34 69 17.68 69 17 69 C17 46.89 17 24.78 17 2 C11.39 2 5.78 2 0 2 C0 1.34 0 0.68 0 0 Z " fill="#889DFF" transform="translate(589,331)"/>
<path d="M0 0 C5.94 0 11.88 0 18 0 C18 0.33 18 0.66 18 1 C12.39 1 6.78 1 1 1 C1 22.78 1 44.56 1 67 C6.61 67 12.22 67 18 67 C17.97905273 65.69329346 17.95810547 64.38658691 17.93652344 63.0402832 C17.86404447 58.18557726 17.81817125 53.33091902 17.78027344 48.47583008 C17.76017603 46.37581333 17.73289334 44.27585242 17.69824219 42.17602539 C17.6496423 39.15497042 17.62701238 36.13465623 17.609375 33.11328125 C17.58872986 32.17664139 17.56808472 31.24000153 17.54681396 30.27497864 C17.54533504 25.96466981 17.62060049 23.62561907 19.89941406 19.86791992 C22 18 22 18 24 18 C22.84826645 20.46800047 21.95216435 22.04783565 20 24 C19.67043065 25.97760261 19.67043065 25.97760261 19.68115234 28.26611328 C19.66128265 29.14687531 19.64141296 30.02763733 19.62094116 30.93508911 C19.60361435 32.36327469 19.60361435 32.36327469 19.5859375 33.8203125 C19.56657135 34.79410858 19.5472052 35.76790466 19.5272522 36.77120972 C19.46735442 39.88905003 19.42103029 43.00692706 19.375 46.125 C19.33682961 48.23569341 19.29777844 50.34637108 19.2578125 52.45703125 C19.16164451 57.63789343 19.07765128 62.81882853 19 68 C12.73 68 6.46 68 0 68 C0 45.56 0 23.12 0 0 Z " fill="#AFBEFF" transform="translate(536,332)"/>
<path d="M0 0 C11.55 0 23.1 0 35 0 C35 0.33 35 0.66 35 1 C33.19402344 1.09087891 33.19402344 1.09087891 31.3515625 1.18359375 C29.77602923 1.26799732 28.20050904 1.35264541 26.625 1.4375 C25.8309375 1.47681641 25.036875 1.51613281 24.21875 1.55664062 C19.97398779 1.68893404 19.97398779 1.68893404 16 3 C13.28239892 3.07181821 10.59140612 3.09299506 7.875 3.0625 C7.12089844 3.05798828 6.36679687 3.05347656 5.58984375 3.04882812 C3.72652873 3.03703499 1.86325445 3.01909942 0 3 C0 2.01 0 1.02 0 0 Z " fill="#E2E7FF" transform="translate(582,422)"/>
<path d="M0 0 C-1.15173355 2.46800047 -2.04783565 4.04783565 -4 6 C-4.32956935 7.97760261 -4.32956935 7.97760261 -4.31884766 10.26611328 C-4.33871735 11.14687531 -4.35858704 12.02763733 -4.37905884 12.93508911 C-4.39061005 13.88721283 -4.40216125 14.83933655 -4.4140625 15.8203125 C-4.43342865 16.79410858 -4.4527948 17.76790466 -4.4727478 18.77120972 C-4.53264558 21.88905003 -4.57896971 25.00692706 -4.625 28.125 C-4.66317039 30.23569341 -4.70222156 32.34637108 -4.7421875 34.45703125 C-4.83835527 39.63788144 -4.92337264 44.81882597 -5 50 C-5.33 50 -5.66 50 -6 50 C-6.10152782 43.68300117 -6.17151879 37.36621321 -6.21972656 31.04858398 C-6.23982586 28.9000665 -6.26710993 26.7516036 -6.30175781 24.60327148 C-6.35034913 21.51272095 -6.37298579 18.42289445 -6.390625 15.33203125 C-6.41127014 14.37351761 -6.43191528 13.41500397 -6.45318604 12.42744446 C-6.45464856 8.06801035 -6.39618488 5.65614938 -4.10058594 1.85424805 C-2 0 -2 0 0 0 Z " fill="#879DFF" transform="translate(560,350)"/>
<path d="M0 0 C0.66 0.33 1.32 0.66 2 1 C2 5.95 2 10.9 2 16 C-3.28 15.67 -8.56 15.34 -14 15 C-14 14.67 -14 14.34 -14 14 C-9.38 14 -4.76 14 0 14 C0 9.38 0 4.76 0 0 Z " fill="#BBC7FF" transform="translate(578,332)"/>
<path d="M0 0 C0 3 0 3 -1.53125 4.60546875 C-2.1809375 5.12753906 -2.830625 5.64960938 -3.5 6.1875 C-4.1496875 6.71730469 -4.799375 7.24710937 -5.46875 7.79296875 C-5.9740625 8.19128906 -6.479375 8.58960938 -7 9 C-5.64978174 4.58110387 -3.73884332 2.65654657 0 0 Z " fill="#728BFF" transform="translate(234,349)"/>
</svg>
